<?xml version="1.0" encoding="utf-8"?>
<!-- Generator: Adobe Illustrator 26.0.2, SVG Export Plug-In . SVG Version: 6.00 Build 0)  -->
<svg version="1.1" id="Layer_1" xmlns="http://www.w3.org/2000/svg" xmlns:xlink="http://www.w3.org/1999/xlink" x="0px" y="0px"
	 viewBox="0 0 640 139" style="enable-background:new 0 0 640 139;" xml:space="preserve">
<style type="text/css">
	.st0{fill:url(#SVGID_1_);}
	.st1{fill:#D8E1E1;}
</style>
<g id="Layer_2_1_">
</g>
<linearGradient id="SVGID_1_" gradientUnits="userSpaceOnUse" x1="1" y1="69.5" x2="131.6" y2="69.5">
	<stop  offset="0" style="stop-color:#8B9290"/>
	<stop  offset="0.2628" style="stop-color:#8E9593"/>
	<stop  offset="0.471" style="stop-color:#979F9D"/>
	<stop  offset="0.6603" style="stop-color:#A7AFAE"/>
	<stop  offset="0.8374" style="stop-color:#BEC5C5"/>
	<stop  offset="1" style="stop-color:#D9E1E2"/>
</linearGradient>
<path class="st0" d="M49.8,111.7h33L66.3,83.2L49.8,111.7z M58.4,106.8l7.9-13.6l7.8,13.6H58.4z M35.1,72.5l-5.8-4l7-1.2l5.8,4
	l3.5-0.6l-5.8-4l7-1.2l5.8,4l44-7.8l-2.9-4.3l18.6,4.2l-16,10.3l1.2-5.2l-44.1,7.8l-4,5.7l-7,1.2l4-5.7l-3.6,0.6l-4,5.7l-7,1.2
	l4-5.7l-3.7,0.7l-4,5.7l-7,1.2l6.1-8.7l-8.6-6l7-1.2l5.8,4L35.1,72.5z M60,44.4L49.8,37h12.6l3.9-12l3.9,12h12.6l-10.2,7.4l3.9,12
	L66.3,49l-8.5,6.2l-1.7,1.2L60,44.4z M57.7,4.8l-3,7.1l-5.5-5.5l-2,7.5l-6.1-4.6l-1,7.7l-6.7-3.9v7.8l-7-2.9l1,7.4l-7.3-1.9l1.9,7.3
	l-7.5-1l2.9,6.9H9.9l3.8,6.5l-7.4,1l4.7,6.1l-7.6,2l5.5,5.5l-7.3,3l6.2,4.8l-6.8,4l6.8,4l-6.2,4.7l7.3,3l-5.5,5.5l7.6,2l-4.7,6.1
	l7.4,1l-3.8,6.5h7.5l-2.9,6.9l7.5-1l-1.9,7.3l7.3-1.9l-1,7.4l7-2.9v7.8l6.7-3.9l1,7.7l6.1-4.7l2,7.5l5.5-5.5l3,7.1l4.7-6.2l3.9,6.7
	l3.9-6.7l4.7,6.2l3-7.1l5.5,5.5l2-7.5l6.1,4.7l1-7.7l6.7,3.9v-7.8l7,2.9l-1-7.4l7.3,1.9l-1.9-7.3l7.5,1l-2.9-6.9h7.5l-3.8-6.5l7.4-1
	l-4.7-6.1l7.6-2l-5.5-5.5l7.3-3l-6.2-4.8l6.8-4l-6.8-4l6.2-4.8l-7.3-3l5.5-5.5l-7.6-2l4.7-6.1l-7.4-1l3.8-6.5h-7.5l2.9-6.9l-7.5,1
	l1.9-7.3l-7.3,1.9l1-7.4l-7,2.9V13l-6.7,3.9l-1-7.7l-6.1,4.7l-2-7.5l-5.5,5.5l-3-7.1L70.2,11l-3.8-6.7l-4,6.7L57.7,4.8z M121,69.6
	c0,30.2-24.5,54.7-54.7,54.7S11.6,99.8,11.6,69.6c0-30.2,24.5-54.7,54.7-54.7S121,39.4,121,69.6z"/>
<g>
	<path class="st1" d="M168,49.4l17.8-8.8v9.5c3.8-5,10.2-9.5,17.7-9.5c8.1,0,12.7,4,15,10.7c3.2-5.3,8.5-10.7,17.2-10.7
		c10.8,0,15.3,6.9,18.5,22.6l3.8,19.2c2.3,11.5,5.7,16.1,8.7,18.5H248l-7.4-38.3c-2-10.9-4.4-17.1-11.2-17.1
		c-4.7,0-7.8,3.2-10.7,7.1c0.9,3.3,1.3,7.1,1.3,11.3v14.2c0,11.8,2.1,20.4,5.3,22.8H207l0.7-35.5c0.2-13.2-2-19.9-10.8-19.9
		c-4.4,0-8.3,2.6-11.2,6.2v28.5c0,11.4,2.7,18.3,5.6,20.8h-18.6l0.7-33.1c0.2-10.4-2.7-15.7-5.5-17.8V49.4z"/>
	<path class="st1" d="M270.7,49.4l17.9-8.8v39.5c0,11.4,2.6,18.3,5.6,20.8h-18.8l0.7-33.2c0.2-10.3-2.7-15.7-5.5-17.8V49.4z
		 M281.2,18.5c4.9,0,8.3,3.9,8.3,8.5c0,4.7-3.4,8.4-8.3,8.4c-4.7,0-8.5-3.7-8.5-8.4C272.7,22.4,276.5,18.5,281.2,18.5z"/>
	<path class="st1" d="M300.8,49.4l17.9-8.8v8.8c3.8-5,9-8.8,16.1-8.8c10.4,0,14.5,5.8,17.7,21.6l4.2,20.2
		c2.3,11.5,5.7,16.1,8.7,18.5h-18.6l-7.4-38.3c-2-10.6-4.3-16.7-10.1-17c-4.6-0.2-7.6,2.3-10.6,5.5v29.1c0,11.4,2.6,18.3,5.6,20.8
		h-18.8l0.7-33.2c0.2-10.3-2.7-15.7-5.5-17.8V49.4z"/>
	<path class="st1" d="M369.3,49.4l17.9-8.8v39.5c0,11.4,2.6,18.3,5.6,20.8H374l0.7-33.2c0.2-10.3-2.7-15.7-5.5-17.8V49.4z
		 M379.9,18.5c4.9,0,8.3,3.9,8.3,8.5c0,4.7-3.4,8.4-8.3,8.4c-4.7,0-8.5-3.7-8.5-8.4C371.3,22.4,375.1,18.5,379.9,18.5z"/>
	<path class="st1" d="M399.4,49.4l17.9-8.8v9.6c2.5-4.3,9.1-9.6,17.8-9.6c12.5,0,24.8,9.7,24.8,29.8c0,22-14,31.5-25,31.5
		c-8.5,0-15-5-17.6-7.6v7.1c0,9.1,2.6,16.6,5.6,19.1h-18.8l0.7-52.8c0.1-10.3-2.7-15.7-5.5-17.8V49.4z M417.4,92.1
		c2.4,2.3,6.4,5.5,12.5,5.5c8.4,0,16.6-8.1,16.6-25.9c-0.1-17.7-7.6-26.7-17.1-26.7c-4.9,0-10,3.9-12,7.8V92.1z"/>
	<path class="st1" d="M527.9,72.2c-0.2,15.9-12.8,29.7-29.4,29.7c-17,0-30.5-13.1-30.5-30.4c0-18,13.9-30.9,30.7-30.9
		c12.7,0,23.6,8.1,23.6,22.7h-41.6c-0.1,1.4-0.2,2.8-0.2,4.3c0,14,10.8,23.4,23.9,23.4c12.5,0,21.5-7.6,23.3-18.8H527.9z
		 M480.9,62.1h12.8c12.2,0,16.5-4.3,16.5-11c0-5.1-4.5-9-11.2-9C489.8,42.1,482.7,50.4,480.9,62.1z"/>
	<path class="st1" d="M533.6,49.4l17.9-8.8v8.8c3.8-5,9-8.8,16.1-8.8c10.4,0,14.5,5.8,17.7,21.6l4.2,20.2
		c2.3,11.5,5.7,16.1,8.7,18.5h-18.6l-7.4-38.3c-2-10.6-4.3-16.7-10.1-17c-4.6-0.2-7.6,2.3-10.6,5.5v29.1c0,11.4,2.6,18.3,5.6,20.8
		h-18.8l0.7-33.2c0.2-10.3-2.7-15.7-5.5-17.8V49.4z"/>
	<path class="st1" d="M626.8,41v1.2h-10.1v34c0,16.3,4.3,23.3,10.1,24.1v0.7c-13.1,0-22.7-7-22.7-26V42.2h-7.2v-0.8
		c8-1.7,16.7-8.8,19.1-15.8h0.7V41H626.8z"/>
</g>
</svg>
