<?xml version="1.0" encoding="utf-8"?>
<!-- Generator: Adobe Illustrator 26.0.2, SVG Export Plug-In . SVG Version: 6.00 Build 0)  -->
<svg version="1.1" id="Layer_1" xmlns="http://www.w3.org/2000/svg" xmlns:xlink="http://www.w3.org/1999/xlink" x="0px" y="0px"
	 viewBox="0 0 48 48" style="enable-background:new 0 0 48 48;" xml:space="preserve">
<style type="text/css">
	.st0{clip-path:url(#SVGID_00000111914047988248369150000003337428209505929858_);}
	.st1{fill:#D9E1E2;}
</style>
<g>
	<defs>
		<rect id="SVGID_1_" y="0" width="47.4" height="47.4"/>
	</defs>
	<clipPath id="SVGID_00000014594380927879428870000017005806209286594215_">
		<use xlink:href="#SVGID_1_"  style="overflow:visible;"/>
	</clipPath>
	<g style="clip-path:url(#SVGID_00000014594380927879428870000017005806209286594215_);">
		<path class="st1" d="M23.7,32.3l2.8,4.9h-5.7L23.7,32.3z M17.7,39h12l-6-10.4L17.7,39z M34.7,20.8l-16,2.8l-2.1-1.5l-2.5,0.4
			l2.1,1.5l-1.3,0.2l-2.1-1.5l-2.5,0.4l2.1,1.5L11,25L9,23.5L6.4,24l3.1,2.2l-2.2,3.1l2.5-0.4l1.4-2.1l1.4-0.2l-1.4,2.1l2.5-0.4
			l1.4-2.1l1.3-0.2L15,28l2.5-0.4l1.4-2.1l16-2.8l-0.4,1.9l5.8-3.8l-6.7-1.5L34.7,20.8z M22.3,11.9h-4.6l3.7,2.7L20,18.9l0.6-0.4
			l3.1-2.2l3.7,2.7L26,14.6l3.7-2.7h-4.6l-1.4-4.3L22.3,11.9z M3.9,23.7c0-5.3,2.1-10.3,5.8-14c3.7-3.7,8.8-5.8,14-5.8
			c5.3,0,10.3,2.1,14,5.8c3.7,3.7,5.8,8.8,5.8,14c0,5.3-2.1,10.3-5.8,14c-3.7,3.7-8.8,5.8-14,5.8c-5.3,0-10.3-2.1-14-5.8
			C6,34,3.9,29,3.9,23.7L3.9,23.7z M23.7,0L23.7,0L23.7,0l-1.4,2.4l-1.7-2.2l-1.1,2.6l-2-2l-0.7,2.7l-2.2-1.7l-0.4,2.8l-2.4-1.4V6
			L9.3,5l0.4,2.7L7,7l0.7,2.6L5,9.3l1,2.5H3.3l1.4,2.4L2,14.5l1.7,2.2l-2.7,0.7l2,2l-2.6,1.1l2.2,1.7l-2.5,1.4l2.5,1.4l-2.2,1.7
			L2.9,28l-2,2l2.7,0.7L2,33l2.7,0.4l-1.4,2.4H6l-1,2.5l2.7-0.4L7,40.5l2.6-0.7l-0.4,2.7l2.5-1v2.8l2.4-1.4l0.4,2.8l2.2-1.7l0.7,2.7
			l2-2l1.1,2.6l1.7-2.2l1.4,2.4v0v0l1.4-2.4l1.7,2.2l1.1-2.6l2,2l0.7-2.7l2.2,1.7l0.4-2.8l2.4,1.4v-2.8l2.5,1l-0.4-2.7l2.6,0.7
			l-0.7-2.6l2.7,0.4l-1-2.5h2.7l-1.4-2.4l2.7-0.4l-1.7-2.2l2.7-0.7l-2-2l2.6-1.1L45,25.2l2.5-1.4L45,22.3l2.3-1.7l-2.6-1.1l2-2
			l-2.7-0.7l1.7-2.2l-2.7-0.4l1.4-2.4h-2.7l1-2.5l-2.7,0.4L40.5,7l-2.6,0.7L38.2,5l-2.5,1V3.2l-2.4,1.4l-0.4-2.8l-2.2,1.7l-0.7-2.7
			l-2,2l-1.1-2.6l-1.7,2.2L23.7,0z"/>
	</g>
</g>
</svg>
