<svg width="48" height="48" viewBox="0 0 48 48" fill="none" xmlns="http://www.w3.org/2000/svg">
<g clip-path="url(#clip0_1226_201)">
<path d="M23.7041 32.28L26.5463 37.2034H20.8581L23.7041 32.28ZM17.7127 39.0173H29.688L23.7041 28.6522L17.7127 39.0173ZM34.7146 20.845L18.7513 23.6621L16.6631 22.1814L14.1386 22.6256L16.2269 24.1063L14.9296 24.3358L12.8413 22.8551L10.3169 23.303L12.4052 24.7652L11.045 25.0059L8.95675 23.5436L6.43235 23.9879L9.54445 26.1719L7.32681 29.3148L9.85121 28.8706L11.3001 26.8013L12.6565 26.5606L11.2114 28.63L13.7358 28.1857L15.181 26.1164L16.4783 25.8869L15.0331 27.9562L17.5575 27.5083L19.0027 25.439L35.0103 22.6145L34.5742 24.4987L40.377 20.7451L33.6428 19.2014L34.7146 20.845ZM22.2811 11.8607H17.7164L21.4125 14.5593L19.9895 18.9312L20.6067 18.4832L23.6856 16.2621L27.4001 18.9645L25.9734 14.5889L29.6695 11.8903H25.0938L23.6819 7.54063L22.2811 11.8607ZM3.88576 23.7065C3.88576 18.4373 5.97571 13.3838 9.69582 9.65791C13.4159 5.93199 18.4615 3.8388 23.7225 3.8388C28.9836 3.8388 34.0292 5.93199 37.7493 9.65791C41.4694 13.3838 43.5593 18.4373 43.5593 23.7065C43.5593 28.9758 41.4694 34.0292 37.7493 37.7551C34.0292 41.4811 28.9836 43.5743 23.7225 43.5743C18.4641 43.5723 13.4215 41.4793 9.70322 37.7551C5.98492 34.031 3.89512 28.9806 3.89316 23.7139L3.88576 23.7065ZM23.7447 0V0.0222101V0L22.3402 2.43211L20.6252 0.211007L19.5497 2.80229L17.5575 0.810702L16.8183 3.52413L14.6006 1.8213L14.231 4.63097L11.7879 3.22428V6.04878L9.26355 5.00486L9.63316 7.6924L6.99786 6.98536L7.70012 9.62106L4.97612 9.25088L6.01469 11.7607H3.2796L4.64717 14.1336L1.97122 14.5038L3.664 16.7249L0.917807 17.4652L2.91739 19.4679L0.285795 20.5785L2.53299 22.3109L0.0566406 23.7472L2.53299 25.1836L0.285795 26.9123L2.91739 28.0229L0.917807 30.0256L3.664 30.7659L1.97122 32.987L4.64717 33.3572L3.2796 35.7301H6.01469L4.97612 38.2399L7.70012 37.8697L6.99786 40.5017L9.63316 39.7984L9.26355 42.4859L11.7879 41.442V44.2665L14.231 42.8561L14.6006 45.6658L16.8183 43.9667L17.5575 46.6764L19.5497 44.6848L20.6252 47.2761L22.3402 45.055L23.7447 47.4908V47.4686V47.4908L25.1492 45.055L26.8642 47.2761L27.9398 44.6848L29.9319 46.6764L30.6711 43.9667L32.8888 45.6658L33.2584 42.8561L35.7015 44.2665V41.442L38.2259 42.4859L37.8747 39.7984L40.51 40.5017L39.8078 37.8697L42.5318 38.2399L41.4932 35.7301H44.2283L42.8608 33.3572L45.5367 32.987L43.8439 30.7659L46.5901 30.0256L44.5905 28.0229L47.2221 26.9123L44.9712 25.1836L47.4513 23.7472L44.9712 22.3109L47.2221 20.5785L44.5905 19.4679L46.5901 17.4652L43.8439 16.7249L45.5367 14.5038L42.8608 14.1336L44.2283 11.7607H41.4932L42.5318 9.25088L39.8078 9.62106L40.51 6.98536L37.8747 7.6924L38.2259 5.00486L35.7015 6.04878V3.22428L33.2584 4.63097L32.8888 1.8213L30.6711 3.52413L29.9319 0.810702L27.9176 2.79117L26.842 0.199891L25.127 2.42099L23.7447 0Z" fill="#D9E1E2"/>
</g>
<defs>
<clipPath id="clip0_1226_201">
<rect width="47.4316" height="47.4316" fill="white"/>
</clipPath>
</defs>
</svg>
