<svg width="207" height="48" viewBox="0 0 207 48" fill="none" xmlns="http://www.w3.org/2000/svg">
<g clip-path="url(#clip0_1226_191)">
<path d="M65.9937 25.8753C65.9937 27.901 65.9937 29.9245 65.9937 31.9502C65.9937 32.2044 66.0165 32.5434 66.1739 32.7025C67.7938 34.3561 70.3791 34.9204 72.3076 33.8766C73.7577 33.0891 74.5987 31.8096 75.1456 30.3193C75.9639 28.0891 75.997 25.772 75.7215 23.4611C75.5144 21.698 75.0317 20.0279 73.9317 18.581C71.9244 15.9394 68.3511 15.9477 66.41 18.6389C66.1554 19.004 66.0116 19.4345 65.9957 19.8791C65.9543 21.8799 65.9771 23.8828 65.9771 25.8857L65.9937 25.8753ZM65.9564 18.1118L67.0253 17.1362C70.8845 13.6223 76.9996 14.9163 79.2286 19.7385C81.1282 23.8435 81.0349 28.0395 78.6796 31.9584C76.0198 36.388 70.493 37.1734 66.5343 33.8456C66.3976 33.7319 66.2588 33.6223 66.12 33.5025C65.4986 35.3937 66.292 39.8729 67.6923 42.1837C67.4396 42.2065 67.2366 42.2416 67.0315 42.2416C65.4509 42.2416 63.8724 42.2189 62.296 42.2581C61.6973 42.2726 61.5337 42.099 61.542 41.4996C61.6269 35.9187 61.7139 30.3379 61.7222 24.7571C61.718 23.3449 61.5603 21.9374 61.252 20.5591C61.0676 19.7199 60.4814 18.9696 60.0215 18.0787L65.9647 15.185L65.9564 18.1118Z" fill="#D8E1E1"/>
<path d="M125.811 35.557H119.582C119.317 34.1887 119.062 32.8245 118.789 31.4644C118.028 27.6736 117.268 23.8848 116.481 20.0961C116.352 19.5486 116.158 19.0185 115.903 18.5169C115.122 16.8819 113.568 16.328 111.953 17.1651C111.352 17.5155 110.799 17.9421 110.308 18.4342C110.139 18.6366 110.054 18.8949 110.068 19.1577C110.068 22.8493 110.068 26.5388 110.124 30.2284C110.133 32.1199 110.704 33.9662 111.764 35.5343H105.614C105.614 35.3007 105.614 35.0651 105.614 34.8274C105.674 31.5657 105.74 28.304 105.794 25.0403C105.835 22.5971 105.833 20.1581 103.93 18.1387L110.063 15.1477V18.0415C110.451 17.6281 110.685 17.3739 110.942 17.1217C112.771 15.2614 115.619 14.6269 117.852 15.5632C119.232 16.144 120.04 17.2747 120.438 18.6079C121.109 20.865 121.629 23.1697 122.169 25.464C122.584 27.2581 122.911 29.075 123.344 30.865C123.758 32.5826 124.415 34.2011 125.83 35.5591" fill="#D8E1E1"/>
<path d="M143.105 19.2218C141.555 20.7514 140.47 22.5455 140.097 24.6993C139.718 26.8882 139.925 29.0131 141.149 30.9395C142.682 33.3537 146.328 33.918 148.532 32.1135C148.797 31.9068 148.963 31.7001 148.822 31.326C147.246 27.0929 145.696 22.8514 144.099 18.6224C143.658 17.4566 142.856 16.5554 141.564 16.3198C141.017 16.2185 140.445 16.2557 139.716 16.2227C140.599 15.6298 141.621 15.2739 142.682 15.1892C145.968 14.9411 147.82 16.1007 148.998 19.1826C150.403 22.8576 151.762 26.5513 153.141 30.2367C153.825 32.0618 154.43 33.9263 155.782 35.5716C153.951 35.5716 152.246 35.5716 150.546 35.5529C150.405 35.5529 150.208 35.2987 150.144 35.123C149.812 34.2177 149.522 33.2979 149.176 32.2913C149.051 32.4317 148.932 32.5786 148.822 32.7316C147.165 35.3525 144.739 36.2289 141.779 35.7927C137.162 35.1106 134.723 31.0862 136.045 26.4046C136.764 23.8539 138.38 21.9709 140.536 20.5199C141.329 19.9846 142.193 19.5463 143.022 19.0627L143.109 19.2198" fill="#D8E1E1"/>
<path d="M190.726 25.3318C191.022 24.8481 191.283 24.3376 191.621 23.8849C192.943 22.099 194.78 20.9684 196.698 19.9349C197.379 19.5862 198.018 19.1611 198.602 18.6679C199.768 17.6344 199.497 16.3508 198.007 15.894C197.199 15.6268 196.336 15.5668 195.498 15.7196C194.66 15.8724 193.874 16.233 193.212 16.7683C191.215 18.2999 190.372 20.4517 190.134 22.8556C189.904 25.183 190.287 27.3905 191.822 29.2776C193.125 30.8795 194.848 31.7352 196.854 32.0494C198.577 32.3528 200.352 32.1212 201.939 31.3859C204.104 30.3649 205.392 28.6389 205.989 26.326C206.14 27.035 205.867 28.4219 205.341 29.6848C204.503 31.7356 203.007 33.4508 201.087 34.5612C199.167 35.6716 196.932 36.1142 194.732 35.8196C189.968 35.183 186.511 31.7849 185.895 27.1259C185.156 21.5141 188.404 16.7146 193.929 15.4062C196.161 14.8435 198.517 15.0467 200.62 15.9829C201.995 16.603 203.186 17.4525 203.116 19.1639C203.047 20.801 201.842 21.5699 200.487 22.0887C199.58 22.4263 198.651 22.6985 197.705 22.9031C195.308 23.4488 192.94 24.0296 190.854 25.4434L190.726 25.3338" fill="#D8E1E1"/>
<path d="M102.891 26.0821C102.752 29.0999 101.617 31.6629 99.2571 33.579C95.8205 36.3653 91.9819 36.6629 88.1061 34.753C84.3173 32.8928 82.5586 29.5856 82.6166 25.4062C82.7016 19.3293 87.6131 14.8419 93.7261 15.152C95.141 15.2243 96.502 15.4848 97.7656 16.1338C98.9857 16.7539 99.9863 17.6179 99.9469 19.1185C99.9076 20.5881 98.8987 21.4542 97.6475 21.9275C96.2947 22.4205 94.9107 22.8238 93.5045 23.1346C91.433 23.6224 89.4257 24.259 87.5095 25.3711C87.8223 24.8605 88.0999 24.3231 88.4583 23.8436C89.7716 22.0825 91.5842 20.9498 93.4879 19.9432C94.1038 19.6163 94.6926 19.241 95.2487 18.8208C95.7935 18.4075 96.2575 17.8824 96.0773 17.1053C95.8971 16.3281 95.2756 15.985 94.5734 15.8196C92.7629 15.3897 91.1326 15.7969 89.7095 16.9916C86.3951 19.7737 85.6597 26.6443 89.2765 29.999C92.7588 33.2256 98.7724 32.8018 101.538 29.0689C101.865 28.6101 102.143 28.1182 102.366 27.6013C102.574 27.1135 102.717 26.5906 102.888 26.0821" fill="#D8E1E1"/>
<path d="M175.514 26.5265C175.434 27.952 175.034 29.3414 174.344 30.5922C173.378 32.4298 171.86 33.9196 170.002 34.853C168.145 35.7863 166.041 36.1164 163.986 35.7969C159.611 35.1148 156.345 32.0102 155.508 27.7357C154.615 23.1883 156.558 18.6741 160.392 16.4789C161.889 15.6307 163.574 15.1689 165.296 15.1354C168.08 15.0527 170.729 15.5261 173.167 16.9378C173.276 16.9985 173.37 17.0812 173.444 17.1805C173.518 17.2798 173.571 17.3936 173.598 17.5145C173.631 19.3376 173.617 21.1606 173.49 23.0333C173.35 22.7233 173.215 22.4132 173.076 22.1052C172.04 19.9349 170.731 17.9961 168.631 16.7104C164.767 14.3417 160.637 16.0304 159.516 20.431C158.507 24.4016 159.868 28.5025 162.922 30.6976C166.509 33.2772 171.951 32.4938 174.261 29.0255C174.762 28.271 175.09 27.4029 175.527 26.5306" fill="#D8E1E1"/>
<path d="M176.432 10.3876L182.485 7.41113V8.24825C182.485 15.2491 182.485 22.2499 182.509 29.2487C182.505 30.3066 182.623 31.3616 182.862 32.3925C183.121 33.4632 183.612 34.4802 184.007 35.5426C183.903 35.564 183.797 35.5751 183.69 35.5757C182.033 35.5757 180.394 35.5529 178.75 35.5922C178.149 35.6067 177.987 35.4289 177.998 34.8336C178.101 28.8931 178.184 22.952 178.246 17.0101C178.265 15.2284 178.186 13.4425 177.36 11.8034C177.078 11.3142 176.768 10.8414 176.432 10.3876" fill="#D8E1E1"/>
<path d="M134.603 35.4826C132.967 35.6232 131.465 35.309 130.129 34.3913C127.939 32.8886 127.146 30.6315 127.069 28.1449C126.951 24.2983 127.007 20.4475 126.99 16.5988C126.99 16.3136 126.99 16.0263 126.99 15.6397H124.567L124.494 15.433C127.394 14.4926 129.739 12.8845 131.189 10.0817V15.2698H134.591C134.591 15.371 134.591 15.4764 134.601 15.5757C133.528 15.7824 132.405 15.5653 131.287 15.708C131.27 15.9477 131.247 16.1461 131.247 16.3425C131.247 20.1912 131.222 24.0399 131.27 27.8886C131.287 29.0804 131.412 30.2682 131.643 31.4376C131.989 33.2007 132.643 34.8067 134.593 35.4744" fill="#D8E1E1"/>
</g>
<g clip-path="url(#clip1_1226_191)">
<path d="M23.7041 32.28L26.5463 37.2034H20.8581L23.7041 32.28ZM17.7127 39.0173H29.688L23.7041 28.6522L17.7127 39.0173ZM34.7146 20.845L18.7513 23.6621L16.6631 22.1814L14.1386 22.6256L16.2269 24.1063L14.9296 24.3358L12.8413 22.8551L10.3169 23.303L12.4052 24.7652L11.045 25.0059L8.95675 23.5436L6.43235 23.9879L9.54445 26.1719L7.32681 29.3148L9.85121 28.8706L11.3001 26.8013L12.6565 26.5606L11.2114 28.63L13.7358 28.1857L15.181 26.1164L16.4783 25.8869L15.0331 27.9562L17.5575 27.5083L19.0027 25.439L35.0103 22.6145L34.5742 24.4987L40.377 20.7451L33.6428 19.2014L34.7146 20.845ZM22.2811 11.8607H17.7164L21.4125 14.5593L19.9895 18.9312L20.6067 18.4832L23.6856 16.2621L27.4001 18.9645L25.9734 14.5889L29.6695 11.8903H25.0938L23.6819 7.54063L22.2811 11.8607ZM3.88576 23.7065C3.88576 18.4373 5.97571 13.3838 9.69582 9.65791C13.4159 5.93199 18.4615 3.8388 23.7225 3.8388C28.9836 3.8388 34.0292 5.93199 37.7493 9.65791C41.4694 13.3838 43.5593 18.4373 43.5593 23.7065C43.5593 28.9758 41.4694 34.0292 37.7493 37.7551C34.0292 41.4811 28.9836 43.5743 23.7225 43.5743C18.4641 43.5723 13.4215 41.4793 9.70322 37.7551C5.98492 34.031 3.89512 28.9806 3.89316 23.7139L3.88576 23.7065ZM23.7447 0V0.0222101V0L22.3402 2.43211L20.6252 0.211007L19.5497 2.80229L17.5575 0.810702L16.8183 3.52413L14.6006 1.8213L14.231 4.63097L11.7879 3.22428V6.04878L9.26355 5.00486L9.63316 7.6924L6.99786 6.98536L7.70012 9.62106L4.97612 9.25088L6.01469 11.7607H3.2796L4.64717 14.1336L1.97122 14.5038L3.664 16.7249L0.917807 17.4652L2.91739 19.4679L0.285795 20.5785L2.53299 22.3109L0.0566406 23.7472L2.53299 25.1836L0.285795 26.9123L2.91739 28.0229L0.917807 30.0256L3.664 30.7659L1.97122 32.987L4.64717 33.3572L3.2796 35.7301H6.01469L4.97612 38.2399L7.70012 37.8697L6.99786 40.5017L9.63316 39.7984L9.26355 42.4859L11.7879 41.442V44.2665L14.231 42.8561L14.6006 45.6658L16.8183 43.9667L17.5575 46.6764L19.5497 44.6848L20.6252 47.2761L22.3402 45.055L23.7447 47.4908V47.4686V47.4908L25.1492 45.055L26.8642 47.2761L27.9398 44.6848L29.9319 46.6764L30.6711 43.9667L32.8888 45.6658L33.2584 42.8561L35.7015 44.2665V41.442L38.2259 42.4859L37.8747 39.7984L40.51 40.5017L39.8078 37.8697L42.5318 38.2399L41.4932 35.7301H44.2283L42.8608 33.3572L45.5367 32.987L43.8439 30.7659L46.5901 30.0256L44.5905 28.0229L47.2221 26.9123L44.9712 25.1836L47.4513 23.7472L44.9712 22.3109L47.2221 20.5785L44.5905 19.4679L46.5901 17.4652L43.8439 16.7249L45.5367 14.5038L42.8608 14.1336L44.2283 11.7607H41.4932L42.5318 9.25088L39.8078 9.62106L40.51 6.98536L37.8747 7.6924L38.2259 5.00486L35.7015 6.04878V3.22428L33.2584 4.63097L32.8888 1.8213L30.6711 3.52413L29.9319 0.810702L27.9176 2.79117L26.842 0.199891L25.127 2.42099L23.7447 0Z" fill="#D9E1E2"/>
</g>
<defs>
<clipPath id="clip0_1226_191">
<rect width="146" height="34.8326" fill="white" transform="translate(60.0293 7.41113)"/>
</clipPath>
<clipPath id="clip1_1226_191">
<rect width="47.4316" height="47.4316" fill="white"/>
</clipPath>
</defs>
</svg>
